<?xml version="1.0" encoding="iso-8859-1"?>
<!-- Uploaded to: SVG Repo, www.svgrepo.com, Generator: SVG Repo Mixer Tools -->
<svg version="1.1" id="Layer_1" xmlns="http://www.w3.org/2000/svg" xmlns:xlink="http://www.w3.org/1999/xlink" 
	 viewBox="0 0 512 512" xml:space="preserve">
<path style="fill:#999999;" d="M256,0C114.616,0,0,114.616,0,256s114.616,256,256,256s256-114.616,256-256S397.384,0,256,0z"/>
<rect x="244" y="346.72" width="24" height="58.152"/>
<polygon points="180.928,419.808 188.928,395.808 323.072,395.808 331.072,419.808 "/>
<path style="fill:#FFFFFF;" d="M91.976,349.448c-12.12,0-21.976-9.856-21.976-21.976V147.136c0-12.12,9.856-21.976,21.976-21.976
	h328.056c12.12,0,21.976,9.856,21.976,21.976v180.336c0,12.12-9.856,21.976-21.976,21.976H91.976z"/>
<path d="M420.024,131.16c8.808,0,15.976,7.168,15.976,15.976V327.48c0,8.808-7.168,15.976-15.976,15.976H91.976
	c-8.808,0-15.976-7.168-15.976-15.976V147.136c0-8.808,7.168-15.976,15.976-15.976H420.024 M420.024,119.16H91.976
	C76.592,119.16,64,131.752,64,147.136V327.48c0,15.384,12.592,27.976,27.976,27.976h328.056c15.384,0,27.976-12.592,27.976-27.976
	V147.136C448,131.752,435.408,119.16,420.024,119.16L420.024,119.16z"/>
<g>
	<rect x="134.664" y="170.976" style="fill:#F00000;" width="52" height="52"/>
	<rect x="134.664" y="252.312" style="fill:#F00000;" width="52" height="52"/>
</g>
<g>
	<rect x="209.28" y="170.944" style="fill:#CCCCCC;" width="168" height="52"/>
	<rect x="209.28" y="252.328" style="fill:#CCCCCC;" width="168" height="52"/>
</g>
</svg>